HIERARCHY
ROOT pelvis
{
	OFFSET 0.00 0.00 0.00
	CHANNELS 6 Xposition Yposition Zposition Zrotation Xrotation Yrotation
	JOINT lfemur
	{
		OFFSET 0 9.44381 0
		CHANNELS 3 Zrotation Xrotation Yrotation
		JOINT ltibia
		{
			OFFSET 0 0 -42.4523
			CHANNELS 3 Zrotation Xrotation Yrotation
			JOINT lfoot
			{
				OFFSET 0 0 -42.0313
				CHANNELS 3 Zrotation Xrotation Yrotation
				JOINT ltoes
				{
					OFFSET 10.6461 0 -1.87394
					CHANNELS 3 Zrotation Xrotation Yrotation
				}
			}
		}
	}
	JOINT rfemur
	{
		OFFSET 0 -9.44381 0
		CHANNELS 3 Zrotation Xrotation Yrotation
		JOINT rtibia
		{
			OFFSET 0 0 -43.7747
			CHANNELS 3 Zrotation Xrotation Yrotation
			JOINT rfoot
			{
				OFFSET 0 0 -39.1074
				CHANNELS 3 Zrotation Xrotation Yrotation
				JOINT rtoes
				{
					OFFSET 9.60148 0 -2.68335
					CHANNELS 3 Zrotation Xrotation Yrotation
				}
			}
		}
	}
	JOINT lowerback
	{
		OFFSET -5 -3.19874e-007 8.03409
		CHANNELS 3 Zrotation Xrotation Yrotation
		JOINT upperback
		{
			OFFSET 1.9154 0 17.1428
			CHANNELS 3 Zrotation Xrotation Yrotation
			JOINT lclavicle
			{
				OFFSET 0 0 23.2225
				CHANNELS 3 Zrotation Xrotation Yrotation
				JOINT lhumerus
				{
					OFFSET 0 15.5074 -3.90134
					CHANNELS 3 Zrotation Xrotation Yrotation
					JOINT lradius
					{
						OFFSET 0 0 -26.8057
						CHANNELS 3 Zrotation Xrotation Yrotation
						JOINT lhand
						{
							OFFSET -6.48223e-005 -5.61445e-005 -26.4309
							CHANNELS 3 Zrotation Xrotation Yrotation
						}
					}
				}
			}
			JOINT rclavicle
			{
				OFFSET 0 0 23.2225
				CHANNELS 3 Zrotation Xrotation Yrotation
				JOINT rhumerus
				{
					OFFSET 0 -15.5761 -4.04532
					CHANNELS 3 Zrotation Xrotation Yrotation
					JOINT rradius
					{
						OFFSET 0 0 -26.9025
						CHANNELS 3 Zrotation Xrotation Yrotation
						JOINT rhand
						{
							OFFSET 0 0 -25.0231
							CHANNELS 3 Zrotation Xrotation Yrotation
						}
					}
				}
			}
			JOINT LowerNeck
			{
				OFFSET 0 0 23.2225
				CHANNELS 3 Zrotation Xrotation Yrotation
				JOINT Neck
				{
					OFFSET -4.46188 0.196104 10.555
					CHANNELS 3 Zrotation Xrotation Yrotation
				}
			}
		}
	}
}
MOTION
Frames: 23
Frame Time: 0.0416667
6.03425	16.3237	87.492	121.032	1.25411	25.3704	-4.8849	2.68288	-43.2013	-4.73926	-1.57738	18.3678	-3.17774	-1.19559	5.59766	-0	0	6.6749	-11.1678	4.05136	-40.643	-21.0237	-11.5464	27.5102	-12.458	-2.63399	-3.249	-0	0	7.7743	-2.17366	4.06704	9.82393	-5.85397	2.4141	-2.59256	-24.6476	11.056	5.02858	52.3493	51.8062	-112.5	5.64656	-3.65491	-32.8118	-0	23.0579	-6.3024	14.2526	-4.7685	1.20969	-85.6221	-59.4115	-95.6348	-33.3805	14.7921	-21.1808	-0	5.4547	-16.7746	-0.817023	10.2583	48.1453	-7.42239	-8.55595	-109.146
6.03425	16.3237	87.492	120.819	1.82558	25.2031	-4.3616	1.33576	-42.4953	-5.12003	-1.60816	17.3913	-3.62379	-1.40375	6.14672	-0	0	6.7238	-11.4659	3.18047	-40.4784	-21.1593	-11.5327	27.3178	-12.2607	-2.65	-2.98902	-0	0	7.7502	-2.28449	4.24776	9.88045	-6.11439	2.57076	-2.43541	-24.8018	11.1104	5.0886	51.8477	52.0236	-112.05	5.7246	-3.70999	-32.841	-0	22.9614	-6.2873	14.1287	-4.6928	1.17977	-85.341	-59.0164	-95.0173	-33.0284	14.8656	-21.5356	-0	5.2547	-16.7205	-0.714764	10.0123	48.2726	-7.97394	-9.24163	-109.451
6.03425	16.3237	87.492	120.52	2.42446	24.9728	-3.82821	-0.0294164	-41.689	-5.46892	-1.61855	16.4369	-4.04992	-1.61145	6.66171	-0	0	6.785	-11.7693	2.26704	-40.2844	-21.2585	-11.5244	27.1814	-12.0314	-2.64855	-2.76687	-0	0	7.7212	-2.36883	4.35345	9.96281	-6.35469	2.72606	-2.26438	-24.9731	11.1402	5.14192	51.3732	52.2333	-111.575	5.7928	-3.75705	-32.8583	-0	22.817	-6.2637	14.0102	-4.62844	1.15346	-85.0162	-58.6298	-94.3977	-32.6096	14.906	-21.904	-0	5.1355	-16.6674	-0.607729	9.73957	48.4225	-8.53408	-9.91924	-109.779
6.03425	16.3237	87.492	120.147	3.02977	24.7128	-3.30458	-1.36251	-40.838	-5.79326	-1.61642	15.5375	-4.44359	-1.81086	7.12824	-0	0	6.8528	-12.0535	1.33458	-40.1004	-21.3266	-11.5309	27.1127	-11.7849	-2.63227	-2.58583	-0	0	7.6897	-2.44185	4.4299	10.0482	-6.56806	2.84252	-2.10368	-25.1416	11.143	5.18254	50.9257	52.461	-111.093	5.85711	-3.79832	-32.8529	-0	22.6587	-6.2395	13.9035	-4.55463	1.12612	-84.6966	-58.3105	-93.8337	-32.1273	14.9027	-22.2712	-0	4.9881	-16.5873	-0.501893	9.45861	48.6018	-9.10775	-10.5918	-110.129
6.03425	16.3237	87.492	119.702	3.6258	24.4489	-2.80824	-2.6281	-39.994	-6.10197	-1.60993	14.7247	-4.78354	-1.99021	7.53905	-0	0	6.9225	-12.2884	0.39737	-39.9599	-21.3778	-11.5655	27.1201	-11.5338	-2.6053	-2.44269	-0	0	7.6566	-2.51136	4.5047	10.1237	-6.7473	2.89376	-1.97128	-25.298	11.1235	5.21019	50.5009	52.7105	-110.613	5.91895	-3.83254	-32.8106	-0	22.5267	-6.219	13.8098	-4.45271	1.09326	-84.4132	-58.0824	-93.3722	-31.595	14.8396	-22.6063	-0	4.7907	-16.4891	-0.400526	9.18425	48.8006	-9.68442	-11.25	-110.477
6.03425	16.3237	87.492	119.191	4.19279	24.1974	-2.34662	-3.7994	-39.2098	-6.39267	-1.60638	14.0475	-5.04849	-2.13608	7.87619	-0	0	6.9873	-12.4393	-0.529591	-39.8807	-21.4289	-11.6381	27.2027	-11.2917	-2.57218	-2.33235	-0	0	7.6227	-2.57599	4.59405	10.1854	-6.88719	2.8744	-1.87335	-25.4402	11.092	5.22892	50.1021	52.9641	-110.154	5.9764	-3.85527	-32.7109	-0	22.4171	-6.1988	13.7273	-4.3228	1.05485	-84.1649	-57.937	-93.0245	-31.0318	14.7071	-22.8794	-0	4.5616	-16.3871	-0.302261	8.91467	48.9973	-10.2329	-11.8696	-110.786
6.03425	16.3237	87.492	118.605	4.72687	23.9606	-1.92238	-4.87363	-38.5179	-6.64104	-1.60803	13.5509	-5.22614	-2.23769	8.11676	-0	0	7.0428	-12.4775	-1.45229	-39.8675	-21.4773	-11.7494	27.3638	-11.0759	-2.53647	-2.26086	-0	0	7.595	-2.62882	4.68466	10.2405	-6.97913	2.79031	-1.8139	-25.5832	11.0553	5.24531	49.7547	53.211	-109.737	6.06284	-3.88692	-32.5469	-0	22.2842	-6.1653	13.6586	-4.18107	1.01502	-83.9215	-57.8732	-92.7533	-30.4671	14.5118	-23.072	-0	4.3104	-16.2748	-0.204224	8.63823	49.1829	-10.717	-12.4165	-111.029
6.03425	16.3237	87.492	117.935	5.23709	23.7403	-1.54664	-5.85975	-37.9397	-6.81086	-1.61307	13.262	-5.32418	-2.29436	8.24735	-0	0	7.085	-12.3797	-2.39296	-39.9222	-21.4989	-11.8884	27.6098	-10.9167	-2.50423	-2.2359	-0	0	7.5856	-2.66923	4.75813	10.2941	-7.01761	2.639	-1.79804	-25.7431	11.0159	5.26428	49.4567	53.4246	-109.346	6.17423	-3.92628	-32.332	-0	22.1042	-6.119	13.6095	-4.0468	0.978822	-83.6456	-57.9062	-92.5076	-29.9785	14.2871	-23.1616	-0	4.1042	-16.159	-0.106328	8.35065	49.3685	-11.1127	-12.8629	-111.212
6.03425	16.3237	87.492	117.179	5.72956	23.5385	-1.23574	-6.75767	-37.4923	-6.87395	-1.62011	13.1988	-5.3599	-2.311	8.2577	-0	0	7.1115	-12.1262	-3.36954	-40.0398	-21.4718	-12.0411	27.9398	-10.8461	-2.48245	-2.26142	-0	0	7.6005	-2.69994	4.80358	10.3458	-7.00361	2.41526	-1.82186	-25.927	10.9799	5.29026	49.1944	53.5795	-108.952	6.30653	-3.97399	-32.0914	-0	21.9589	-6.0793	13.5833	-3.93436	0.949775	-83.3032	-58.0514	-92.249	-29.6777	14.0791	-23.1161	-0	4.0928	-16.0747	-0.0092375	8.05857	49.5597	-11.4132	-13.2015	-111.34
6.03425	16.3237	87.492	116.325	6.21657	23.3446	-1.00141	-7.57426	-37.1629	-6.8214	-1.62678	13.3505	-5.34153	-2.29124	8.15086	-0	0	7.1225	-11.7078	-4.40287	-40.198	-21.3848	-12.1941	28.3425	-10.8814	-2.47356	-2.34643	-0	0	7.6444	-2.71834	4.79009	10.4075	-6.94096	2.13085	-1.87337	-26.1287	10.9506	5.32346	48.9625	53.6592	-108.541	6.4842	-4.0483	-31.8464	-0	21.9194	-6.0584	13.5745	-3.85448	0.929897	-82.8695	-58.3261	-91.9638	-29.6156	13.9143	-22.9301	-0	4.2713	-16.0233	0.0881534	7.77169	49.745	-11.6245	-13.4494	-111.405
6.03425	16.3237	87.492	115.375	6.69748	23.1607	-0.838105	-8.31576	-36.9487	-6.67514	-1.63466	13.6985	-5.25962	-2.2323	7.93451	-0	0	7.1193	-11.1382	-5.48432	-40.3774	-21.244	-12.3368	28.7927	-11.0193	-2.47455	-2.49874	-0	0	7.7153	-2.7274	4.7122	10.4753	-6.82705	1.79352	-1.94502	-26.3454	10.9255	5.36204	48.7491	53.6562	-108.095	6.714	-4.15677	-31.6224	-0	22.0199	-6.0601	13.58	-3.81822	0.921554	-82.3174	-58.7235	-91.6196	-29.7443	13.7907	-22.6442	-0	4.5612	-15.9816	0.183962	7.51418	49.919	-11.7736	-13.654	-111.402
6.03425	16.3237	87.492	114.339	7.16897	22.9839	-0.724391	-8.99785	-36.8271	-6.45382	-1.64051	14.2023	-5.11087	-2.13584	7.62123	-0	0	7.1048	-10.4567	-6.59202	-40.5548	-21.0839	-12.4752	29.2615	-11.2023	-2.47028	-2.72195	-0	0	7.8003	-2.73214	4.58116	10.5473	-6.66078	1.40491	-2.02674	-26.5689	10.8963	5.40025	48.5493	53.5754	-107.61	7.00638	-4.3095	-31.4432	-0	22.2519	-6.0857	13.6027	-3.84168	0.928817	-81.6093	-59.1928	-91.1557	-29.9553	13.6917	-22.3285	-0	4.8823	-15.9358	0.277929	7.30256	50.0688	-11.8843	-13.8586	-111.319
6.03425	16.3237	87.492	113.235	7.63184	22.8189	-0.637487	-9.64545	-36.7738	-6.17095	-1.63827	14.8111	-4.90611	-2.01059	7.23069	-0	0	7.0822	-9.72839	-7.70077	-40.7319	-20.9395	-12.6271	29.7388	-11.3427	-2.44285	-3.00411	-0	0	7.8792	-2.7408	4.41598	10.608	-6.44127	0.96741	-2.10114	-26.7872	10.8499	5.42864	48.3681	53.432	-107.1	7.35462	-4.50667	-31.3318	-0	22.6071	-6.1372	13.6431	-3.9495	0.957784	-80.7076	-59.6732	-90.5099	-30.1132	13.5921	-22.0575	-0	5.1194	-15.8689	0.377557	7.1245	50.1722	-11.9612	-14.0735	-111.145
6.03425	16.3237	87.492	112.088	8.081	22.6453	-0.536235	-10.2848	-36.7311	-5.85536	-1.62648	15.4706	-4.66722	-1.87001	6.78706	-0	0	7.0571	-9.01562	-8.78683	-40.8929	-20.8039	-12.7902	30.228	-11.393	-2.38941	-3.31053	-0	0	7.9369	-2.76181	4.25864	10.6706	-6.17668	0.471399	-2.15117	-26.9771	10.7769	5.43704	48.2201	53.2547	-106.594	7.72272	-4.7311	-31.3086	-0	23.078	-6.2116	13.6904	-4.16573	1.01376	-79.5834	-60.1241	-89.6512	-30.1366	13.4791	-21.876	-0	5.2545	-15.7732	0.494703	6.9515	50.2065	-11.9966	-14.2948	-110.87
6.03425	16.3237	87.492	110.902	8.53893	22.4736	-0.385734	-10.9694	-36.6745	-5.54212	-1.60769	16.1268	-4.40214	-1.72288	6.33323	-0	0	7.0372	-8.37665	-9.85531	-41.0829	-20.6341	-12.9557	30.7692	-11.3385	-2.31686	-3.60162	-0	0	7.965	-2.79466	4.10077	10.711	-5.86721	-0.074782	-2.15614	-27.1189	10.6671	5.4154	48.0861	53.0556	-106.095	8.04401	-4.94561	-31.3838	-0	23.6011	-6.2998	13.7299	-4.50194	1.09868	-78.2394	-60.5394	-88.5858	-30.0058	13.3554	-21.8011	-0	5.3862	-15.6652	0.638886	6.75401	50.1728	-11.9858	-14.5179	-110.511
6.03425	16.3237	87.492	109.69	9.00931	22.2892	-0.169467	-11.7108	-36.5611	-5.25371	-1.58445	16.7362	-4.10097	-1.56863	5.89678	-0	0	7.0243	-7.83013	-10.9014	-41.2964	-20.4046	-13.1093	31.3715	-11.2005	-2.23718	-3.8478	-0	0	7.967	-2.83717	3.9544	10.735	-5.51739	-0.673373	-2.10902	-27.2147	10.5214	5.3646	47.9536	52.8497	-105.588	8.25657	-5.11436	-31.5632	-0	24.0743	-6.3872	13.7573	-4.94384	1.20873	-76.7045	-60.9136	-87.3406	-29.6726	13.2059	-21.849	-0	5.4952	-15.5482	0.8069	6.52584	50.0938	-11.9399	-14.7437	-110.099
6.03425	16.3237	87.492	108.479	9.48249	22.0747	0.0967242	-12.48	-36.3588	-4.96801	-1.54862	17.2704	-3.7772	-1.41371	5.49034	-0	0	7.0152	-7.3536	-11.9152	-41.4929	-20.1231	-13.2379	32.0044	-11.0261	-2.16319	-4.03683	-0	0	7.953	-2.88697	3.83671	10.7606	-5.13904	-1.31782	-2.02135	-27.2803	10.3495	5.29319	47.8015	52.6475	-105.03	8.32366	-5.21513	-31.8515	-0	24.4134	-6.4595	13.7718	-5.45525	1.33483	-75.0278	-61.2687	-85.9758	-29.0779	13.0043	-22.031	-0	5.3426	-15.37	0.991983	6.27446	50.0137	-11.8803	-14.9768	-109.677
6.03425	16.3237	87.492	107.29	9.95004	21.8137	0.392205	-13.2435	-36.0443	-4.63241	-1.48297	17.7132	-3.48569	-1.27891	5.12435	-0	0	7.0103	-6.90816	-12.8949	-41.6141	-19.8277	-13.3371	32.6098	-10.8475	-2.10074	-4.17017	-0	0	7.9299	-2.93895	3.75902	10.8094	-4.7435	-1.99845	-1.91107	-27.3363	10.1626	5.21156	47.6111	52.4632	-104.382	8.23793	-5.23974	-32.243	-0	24.5778	-6.5071	13.7682	-5.99295	1.46549	-73.2771	-61.6471	-84.5772	-28.3013	12.7645	-22.3091	-0	4.9463	-15.1248	1.17748	6.01153	49.9819	-11.8271	-15.2108	-109.298
6.03425	16.3237	87.492	106.133	10.413	21.4886	0.724796	-13.993	-35.5886	-4.24003	-1.38464	18.0526	-3.27291	-1.18059	4.81417	-0	0	7.0087	-6.45949	-13.8513	-41.6016	-19.5727	-13.4158	33.127	-10.6582	-2.0466	-4.25536	-0	0	7.8995	-2.98381	3.70989	10.8996	-4.34025	-2.69183	-1.78515	-27.4027	9.96655	5.12703	47.3963	52.3294	-103.642	8.03526	-5.20131	-32.7077	-0	24.581	-6.5277	13.7431	-6.5292	1.59298	-71.5051	-62.0813	-83.2032	-27.4618	12.5227	-22.6459	-0	4.4824	-14.8467	1.34338	5.75025	50.0341	-11.8031	-15.4394	-108.998
6.03425	16.3237	87.492	105.024	10.8586	21.0987	1.10114	-14.7078	-35.0008	-3.82722	-1.26798	18.3034	-3.14095	-1.1175	4.56474	-0	0	7.0078	-5.97708	-14.7788	-41.4258	-19.3961	-13.4847	33.5169	-10.4505	-1.99765	-4.29778	-0	0	7.8613	-3.01616	3.69332	11.0273	-3.94578	-3.37792	-1.64139	-27.4833	9.76744	5.04335	47.1895	52.2855	-102.842	7.76368	-5.1178	-33.1962	-0	24.408	-6.5153	13.715	-7.05618	1.7172	-69.7307	-62.5586	-81.8533	-26.631	12.3039	-23.0241	-0	4.006	-14.5688	1.47632	5.50649	50.1749	-11.8234	-15.6592	-108.775
6.03425	16.3237	87.492	103.962	11.2842	20.6493	1.50282	-15.3708	-34.3041	-3.41039	-1.14167	18.4871	-3.06139	-1.0774	4.37091	-0	0	7.0046	-5.4288	-15.6833	-41.0836	-19.3	-13.5487	33.7817	-10.2337	-1.95361	-4.30706	-0	0	7.819	-3.02563	3.68664	11.1785	-3.57144	-4.02806	-1.46164	-27.5604	9.57205	4.9601	47.0214	52.37	-102.033	7.4786	-5.01431	-33.6567	-0	24.0586	-6.4673	13.7017	-7.5787	1.84171	-67.9509	-63.0416	-80.501	-25.8567	12.1319	-23.4438	-0	3.5485	-14.3127	1.57709	5.29416	50.387	-11.895	-15.8673	-108.612
6.03425	16.3237	87.492	102.952	11.6732	20.1511	1.90865	-15.954	-33.5368	-2.9886	-1.00873	18.6343	-3.01574	-1.05193	4.212	-0	0	6.9974	-4.77986	-16.553	-40.5842	-19.2727	-13.6098	33.9391	-10.0378	-1.91876	-4.28834	-0	0	7.7788	-3.00832	3.68947	11.3315	-3.21753	-4.62504	-1.23184	-27.6168	9.38065	4.87391	46.9137	52.6281	-101.267	7.22883	-4.91729	-34.0504	-0	23.62	-6.3966	13.7149	-8.09967	1.96937	-66.159	-63.5128	-79.1191	-25.17	12.0211	-23.9031	-0	3.1172	-14.084	1.64897	5.12903	50.6526	-12.0193	-16.0688	-108.488
6.03425	16.3237	87.492	101.996	12.0179	19.6104	2.32302	-16.4535	-32.7131	-2.56712	-0.872346	18.7562	-2.99572	-1.03675	4.07179	-0	0	6.9849	-4.00967	-17.3799	-39.9409	-19.2969	-13.6703	34.0187	-9.89009	-1.89742	-4.24748	-0	0	7.7438	-2.96674	3.70495	11.4769	-2.88343	-5.17032	-0.953934	-27.6252	9.18908	4.7774	46.8538	53.0926	-100.564	7.05118	-4.85056	-34.3571	-0	23.1916	-6.3192	13.7568	-8.61038	2.09917	-64.3502	-63.9778	-77.7063	-24.6039	11.9774	-24.3797	-0	2.7448	-13.8814	1.69482	5.01175	50.9571	-12.1775	-16.267	-108.371
